<svg width="201" height="28" viewBox="0 0 201 28" fill="none" xmlns="http://www.w3.org/2000/svg">
<path d="M21.084 13.896C21.084 18.24 19.896 21.516 17.52 23.724C15.168 25.908 11.88 27 7.656 27H0.492V1.296H8.412C11.004 1.296 13.248 1.776 15.144 2.736C17.04 3.696 18.504 5.112 19.536 6.984C20.568 8.832 21.084 11.136 21.084 13.896ZM17.664 14.004C17.664 10.572 16.812 8.064 15.108 6.48C13.428 4.872 11.04 4.068 7.944 4.068H3.732V24.228H7.224C14.184 24.228 17.664 20.82 17.664 14.004ZM42.2138 27L39.1178 19.044H28.9298L25.8698 27H22.5938L32.6378 1.188H35.5538L45.5618 27H42.2138ZM38.1458 16.164L35.2658 8.388C35.1938 8.196 35.0738 7.848 34.9058 7.344C34.7378 6.84 34.5698 6.324 34.4018 5.796C34.2578 5.244 34.1378 4.824 34.0418 4.536C33.8738 5.28 33.6818 6.012 33.4658 6.732C33.2498 7.428 33.0698 7.98 32.9258 8.388L30.0098 16.164H38.1458ZM60.4179 27L51.9579 4.464H51.8139C51.8859 5.208 51.9459 6.216 51.9939 7.488C52.0419 8.736 52.0659 10.044 52.0659 11.412V27H49.0779V1.296H53.8659L61.7859 22.356H61.9299L69.9939 1.296H74.7459V27H71.5419V11.196C71.5419 9.948 71.5659 8.712 71.6139 7.488C71.6859 6.264 71.7459 5.268 71.7939 4.5H71.6499L63.0819 27H60.4179ZM97.8661 27L94.7701 19.044H84.5821L81.5221 27H78.2461L88.2901 1.188H91.2061L101.214 27H97.8661ZM93.7981 16.164L90.9181 8.388C90.8461 8.196 90.7261 7.848 90.5581 7.344C90.3901 6.84 90.2221 6.324 90.0541 5.796C89.9101 5.244 89.7901 4.824 89.6941 4.536C89.5261 5.28 89.3341 6.012 89.1181 6.732C88.9021 7.428 88.7221 7.98 88.5781 8.388L85.6621 16.164H93.7981ZM125.322 13.896C125.322 18.24 124.134 21.516 121.758 23.724C119.406 25.908 116.118 27 111.894 27H104.73V1.296H112.65C115.242 1.296 117.486 1.776 119.382 2.736C121.278 3.696 122.742 5.112 123.774 6.984C124.806 8.832 125.322 11.136 125.322 13.896ZM121.902 14.004C121.902 10.572 121.05 8.064 119.346 6.48C117.666 4.872 115.278 4.068 112.182 4.068H107.97V24.228H111.462C118.422 24.228 121.902 20.82 121.902 14.004ZM146.452 27L143.356 19.044H133.168L130.108 27H126.832L136.876 1.188H139.792L149.8 27H146.452ZM142.384 16.164L139.504 8.388C139.432 8.196 139.312 7.848 139.144 7.344C138.976 6.84 138.808 6.324 138.64 5.796C138.496 5.244 138.376 4.824 138.28 4.536C138.112 5.28 137.92 6.012 137.704 6.732C137.488 7.428 137.308 7.98 137.164 8.388L134.248 16.164H142.384ZM164.656 27L156.196 4.464H156.052C156.124 5.208 156.184 6.216 156.232 7.488C156.28 8.736 156.304 10.044 156.304 11.412V27H153.316V1.296H158.104L166.024 22.356H166.168L174.232 1.296H178.984V27H175.78V11.196C175.78 9.948 175.804 8.712 175.852 7.488C175.924 6.264 175.984 5.268 176.032 4.5H175.888L167.32 27H164.656ZM200.556 20.124C200.556 22.404 199.728 24.18 198.072 25.452C196.416 26.724 194.184 27.36 191.376 27.36C189.936 27.36 188.604 27.252 187.38 27.036C186.156 26.82 185.136 26.52 184.32 26.136V23.04C185.184 23.424 186.252 23.772 187.524 24.084C188.82 24.396 190.152 24.552 191.52 24.552C193.44 24.552 194.88 24.18 195.84 23.436C196.824 22.692 197.316 21.684 197.316 20.412C197.316 19.572 197.136 18.864 196.776 18.288C196.416 17.712 195.792 17.184 194.904 16.704C194.04 16.2 192.828 15.672 191.268 15.12C189.084 14.328 187.428 13.356 186.3 12.204C185.196 11.052 184.644 9.48 184.644 7.488C184.644 6.12 184.992 4.956 185.688 3.996C186.384 3.012 187.344 2.256 188.568 1.728C189.816 1.2 191.244 0.935999 192.852 0.935999C194.268 0.935999 195.564 1.068 196.74 1.332C197.916 1.596 198.984 1.944 199.944 2.376L198.936 5.148C198.048 4.764 197.076 4.44 196.02 4.176C194.988 3.912 193.908 3.78 192.78 3.78C191.172 3.78 189.96 4.128 189.144 4.824C188.328 5.496 187.92 6.396 187.92 7.524C187.92 8.388 188.1 9.108 188.46 9.684C188.82 10.26 189.408 10.776 190.224 11.232C191.04 11.688 192.144 12.18 193.536 12.708C195.048 13.26 196.32 13.86 197.352 14.508C198.408 15.132 199.2 15.888 199.728 16.776C200.28 17.664 200.556 18.78 200.556 20.124Z" fill="white"/>
</svg>
