<svg width="24" height="24" viewBox="0 0 24 24" fill="none" xmlns="http://www.w3.org/2000/svg">
<path fill-rule="evenodd" clip-rule="evenodd" d="M20.868 6.47395H2.981L11.924 13.4894L20.868 6.47395ZM0 6.47395C0.00237401 5.73045 0.317205 5.01803 0.875737 4.49229C1.43427 3.96655 2.19112 3.6702 2.981 3.66797L20.868 3.66797C21.6579 3.6702 22.4147 3.96655 22.9733 4.49229C23.5318 5.01803 23.8466 5.73045 23.849 6.47395V17.6979C23.8466 18.4414 23.5318 19.1538 22.9733 19.6795C22.4147 20.2053 21.6579 20.5016 20.868 20.5039H2.981C2.19112 20.5016 1.43427 20.2053 0.875737 19.6795C0.317205 19.1538 0.00237401 18.4414 0 17.6979L0 6.47395Z" fill="white"/>
</svg>
