<svg width="24" height="23" viewBox="0 0 24 23" fill="none" xmlns="http://www.w3.org/2000/svg">
<path d="M11.997 8.12425C9.79351 8.12425 7.99529 9.79588 7.99529 11.8443C7.99529 13.8926 9.79351 15.5643 11.997 15.5643C14.2005 15.5643 15.9987 13.8926 15.9987 11.8443C15.9987 9.79588 14.2005 8.12425 11.997 8.12425ZM23.9991 11.8443C23.9991 10.3038 24.0141 8.77727 23.9211 7.23959C23.828 5.45354 23.3897 3.86841 21.9847 2.56236C20.5768 1.25352 18.8746 0.848865 16.9533 0.762353C15.2962 0.675841 13.6541 0.689795 12 0.689795C10.3429 0.689795 8.70077 0.675841 7.04665 0.762353C5.12536 0.848865 3.4202 1.25631 2.01525 2.56236C0.607303 3.8712 0.172008 5.45354 0.0789456 7.23959C-0.0141172 8.78006 0.000892936 10.3066 0.000892936 11.8443C0.000892936 13.3819 -0.0141172 14.9113 0.0789456 16.4489C0.172008 18.235 0.610305 19.8201 2.01525 21.1262C3.4232 22.435 5.12536 22.8397 7.04665 22.9262C8.70377 23.0127 10.3459 22.9987 12 22.9987C13.6571 22.9987 15.2992 23.0127 16.9533 22.9262C18.8746 22.8397 20.5798 22.4322 21.9847 21.1262C23.3927 19.8173 23.828 18.235 23.9211 16.4489C24.0171 14.9113 23.9991 13.3847 23.9991 11.8443ZM11.997 17.568C8.58969 17.568 5.83984 15.0117 5.83984 11.8443C5.83984 8.67681 8.58969 6.12052 11.997 6.12052C15.4043 6.12052 18.1542 8.67681 18.1542 11.8443C18.1542 15.0117 15.4043 17.568 11.997 17.568ZM18.4063 7.22285C17.6108 7.22285 16.9684 6.62563 16.9684 5.8861C16.9684 5.14656 17.6108 4.54935 18.4063 4.54935C19.2019 4.54935 19.8443 5.14656 19.8443 5.8861C19.8445 6.0617 19.8075 6.23563 19.7353 6.39791C19.6631 6.56019 19.5572 6.70764 19.4237 6.83181C19.2901 6.95599 19.1315 7.05444 18.9569 7.12154C18.7823 7.18864 18.5952 7.22307 18.4063 7.22285Z" fill="white"/>
</svg>
