<svg width="35" height="23" viewBox="0 0 35 23" fill="none" xmlns="http://www.w3.org/2000/svg">
<path d="M33.6763 4.17411C33.4814 3.49924 33.0992 2.8838 32.568 2.38939C32.0368 1.89497 31.3753 1.53892 30.6496 1.35686C27.9782 0.688965 17.2699 0.688965 17.2699 0.688965C17.2699 0.688965 6.56166 0.688965 3.89033 1.35331C3.16429 1.53477 2.5024 1.89063 1.97111 2.38514C1.43983 2.87965 1.05787 3.4954 0.863575 4.17055C0.148926 6.6574 0.148926 11.8443 0.148926 11.8443C0.148926 11.8443 0.148926 17.0311 0.863575 19.5144C1.25721 20.8857 2.41899 21.9657 3.89033 22.3317C6.56166 22.9996 17.2699 22.9996 17.2699 22.9996C17.2699 22.9996 27.9782 22.9996 30.6496 22.3317C32.1247 21.9657 33.2827 20.8857 33.6763 19.5144C34.391 17.0311 34.391 11.8443 34.391 11.8443C34.391 11.8443 34.391 6.6574 33.6763 4.17411ZM13.8687 16.6048V7.08372L22.7349 11.8087L13.8687 16.6048Z" fill="white"/>
</svg>
