<svg width="25" height="23" viewBox="0 0 25 23" fill="none" xmlns="http://www.w3.org/2000/svg">
<path d="M13.858 16.0729L16.417 13.8675C16.5009 13.7914 16.6018 13.7339 16.7124 13.6992C16.8229 13.6645 16.9403 13.6535 17.056 13.667L17.482 13.8675L23.444 16.473C23.87 16.6735 23.87 16.874 23.87 17.275C23.8565 17.9527 23.6992 18.621 23.4072 19.2406C23.1153 19.8602 22.6946 20.4186 22.17 20.8829C21.5776 21.4196 20.8761 21.8379 20.1076 22.1129C19.3391 22.3879 18.5195 22.5138 17.698 22.4831C15.6199 22.4715 13.5752 21.9902 11.736 21.0797C9.56765 19.9977 7.56034 18.6514 5.766 17.0754C4.5807 15.6861 3.51277 14.2117 2.572 12.6655C1.72691 11.2568 1.01452 9.78121 0.442996 8.25554C0.0912664 7.01498 -0.0524657 5.73033 0.0169965 4.44802C0.157232 3.32092 0.680145 2.26651 1.508 1.44155C2.64648 0.552618 4.07395 0.0573397 5.553 0.0380859C5.71778 0.0409482 5.8798 0.0784389 6.02721 0.147817C6.17462 0.217195 6.30369 0.316706 6.405 0.439075L9.599 6.05104C9.62133 6.20308 9.69617 6.34399 9.812 6.45203C9.82635 6.56089 9.81467 6.6714 9.77782 6.77546C9.74097 6.87953 9.67987 6.97453 9.599 7.05351L6.831 9.45851C6.72459 9.60648 6.66773 9.78106 6.66773 9.95974C6.66773 10.1384 6.72459 10.313 6.831 10.461C7.56107 11.6112 8.41743 12.6861 9.386 13.668C10.4243 14.6436 11.5659 15.5166 12.793 16.2734C13.217 16.4739 13.645 16.4739 13.858 16.0729Z" fill="white"/>
</svg>
