<svg width="24" height="23" viewBox="0 0 24 23" fill="none" xmlns="http://www.w3.org/2000/svg">
<path d="M12.0005 0.688965C5.37146 0.688965 0.000488281 5.68186 0.000488281 11.8443C0.000488281 18.0067 5.37146 22.9996 12.0005 22.9996C18.6295 22.9996 24.0005 18.0067 24.0005 11.8443C24.0005 5.68186 18.6295 0.688965 12.0005 0.688965ZM20.2021 15.933C20.0327 16.2974 19.3263 16.5628 18.0344 16.7517C17.9666 16.8372 17.9134 17.1925 17.8263 17.4669C17.7731 17.6333 17.6473 17.7323 17.4344 17.7323H17.4247C17.1247 17.7323 16.8053 17.6018 16.1763 17.6018C15.3247 17.6018 15.0295 17.7818 14.3666 18.2181C13.665 18.6814 12.9924 19.0772 11.986 19.0367C10.9698 19.1087 10.1182 18.5329 9.6392 18.2181C8.97146 17.7818 8.68113 17.6018 7.82952 17.6018C7.22468 17.6018 6.84242 17.7413 6.58113 17.7413C6.31984 17.7413 6.21823 17.5928 6.17952 17.4714C6.09242 17.197 6.0392 16.8372 5.97146 16.7517C5.30371 16.6572 3.80371 16.4143 3.76984 15.7891C3.76017 15.6272 3.88113 15.4832 4.05533 15.4562C6.29565 15.1144 7.3021 12.9778 7.34565 12.8878C7.34565 12.8833 7.35049 12.8788 7.35533 12.8743C7.47629 12.6494 7.50049 12.4605 7.43275 12.3121C7.26823 11.9567 6.56662 11.8308 6.27146 11.7183C5.50694 11.4394 5.40049 11.1156 5.44887 10.8952C5.52629 10.5128 6.14565 10.2744 6.50855 10.4319C6.79404 10.5578 7.05049 10.6208 7.26823 10.6208C7.42791 10.6208 7.53436 10.5848 7.58758 10.5578C7.51984 9.48276 7.36017 7.9489 7.77146 7.08977C8.86017 4.82722 11.1634 4.6473 11.8408 4.6473C11.8698 4.6473 12.136 4.6428 12.165 4.6428C13.844 4.6428 15.4553 5.44346 16.244 7.08527C16.6553 7.94441 16.4956 9.47376 16.4279 10.5533C16.4811 10.5803 16.5682 10.6118 16.7037 10.6163C16.9118 10.6073 17.1489 10.5443 17.415 10.4274C17.6086 10.3419 17.8795 10.3554 18.0731 10.4274C18.3779 10.5308 18.5715 10.7332 18.5763 10.9626C18.5811 11.255 18.3005 11.5069 17.744 11.7093C17.6763 11.7363 17.594 11.7588 17.5069 11.7858C17.1924 11.8802 16.7134 12.0197 16.5876 12.3031C16.5198 12.4515 16.5489 12.6404 16.665 12.8653C16.6698 12.8698 16.6698 12.8743 16.6747 12.8788C16.7182 12.9688 17.7247 15.1054 19.965 15.4472C20.1586 15.4922 20.3086 15.6946 20.2021 15.933Z" fill="white"/>
</svg>
